<svg width="73" height="28" viewBox="0 0 73 28" fill="none" xmlns="http://www.w3.org/2000/svg">
<g clip-path="url(#clip0_92_346)">
<path d="M13.3485 1.15646L17.0451 26.0639C17.1085 26.4915 16.7779 26.8758 16.3464 26.8758H10.8376C10.4687 26.8758 10.1619 26.5913 10.1334 26.2228L9.84676 22.5254C9.8301 22.3104 9.65114 22.1445 9.43595 22.1445H7.75151C7.53779 22.1445 7.35954 22.3082 7.34101 22.5215L7.01907 26.2293C6.98732 26.5951 6.68175 26.8758 6.31536 26.8758H0.706491C0.279475 26.8758 -0.0498998 26.4991 0.00624928 26.0749L3.30356 1.1675C3.35014 0.815661 3.64958 0.552795 4.0038 0.552795H12.6498C12.9998 0.552795 13.2971 0.809592 13.3485 1.15646ZM9.58584 17.0191C9.36183 15.0428 9.13738 12.7715 8.91256 10.2051C8.86945 9.71302 8.15668 9.69786 8.09341 10.1877C7.72027 13.077 7.46324 15.3582 7.32259 17.0312C7.30236 17.2719 7.49221 17.4782 7.73324 17.4782H9.17643C9.42245 17.4782 9.6136 17.2641 9.58584 17.0191Z" fill="white"/>
<path d="M33.5703 12.0152H28.1516C27.7615 12.0152 27.4452 11.6984 27.4452 11.3075V7.44029C27.4452 6.11005 27.3722 5.27977 27.2262 4.94972C27.0801 4.61993 26.758 4.45491 26.2607 4.45491C25.6981 4.45491 25.3411 4.6557 25.1897 5.05648C25.038 5.45753 24.9625 6.32467 24.9625 7.65789V19.8845C24.9625 21.1635 25.038 21.9981 25.1897 22.3884C25.3411 22.7786 25.6819 22.9737 26.212 22.9737C26.7204 22.9737 27.0531 22.7783 27.2099 22.387C27.3665 21.996 27.4452 21.0776 27.4452 19.6325V17.0316C27.4452 16.6407 27.7615 16.3238 28.1516 16.3238H33.5703C33.9605 16.3238 34.2767 16.6407 34.2767 17.0316V17.3498C34.2767 20.0742 34.0844 22.0065 33.7007 23.1463C33.3166 24.286 32.4674 25.2846 31.153 26.1422C29.8387 26.9999 28.2184 27.4286 26.2931 27.4286C24.2915 27.4286 22.6421 27.0652 21.3439 26.3392C20.0458 25.6133 19.1858 24.6077 18.7639 23.3232C18.342 22.0388 18.131 20.1067 18.131 17.527V9.83657C18.131 7.93998 18.1959 6.51733 18.3258 5.56863C18.4556 4.62021 18.8423 3.707 19.486 2.82903C20.1294 1.95105 21.0218 1.26006 22.1634 0.756034C23.3047 0.252011 24.6161 0 26.0984 0C28.1105 0 29.7711 0.389669 31.08 1.16901C32.3887 1.94862 33.2487 2.92035 33.6601 4.08367C34.0712 5.24725 34.2767 7.05767 34.2767 9.51464V11.3075C34.2767 11.6984 33.9605 12.0152 33.5703 12.0152Z" fill="white"/>
<path d="M57.8055 1.26056V26.168C57.8055 26.5589 57.4893 26.8758 57.0992 26.8758H52.5401C52.1501 26.8758 51.8339 26.5591 51.8338 26.1683L51.8288 15.2718C51.8285 14.7569 51.0766 14.7068 51.0083 15.2171L49.5308 26.262C49.4838 26.6134 49.1846 26.8758 48.8307 26.8758H45.8251C45.474 26.8758 45.1762 26.6175 45.126 26.2693L43.5237 15.1714C43.4505 14.6645 42.7041 14.7182 42.7038 15.2303L42.6987 26.1683C42.6985 26.5591 42.3823 26.8758 41.9923 26.8758H37.4333C37.0432 26.8758 36.7269 26.5589 36.7269 26.168V1.26056C36.7269 0.869675 37.0432 0.552797 37.4333 0.552797L44.9658 0.552795C45.3129 0.552795 45.6084 0.804838 45.6633 1.14816C45.895 2.59754 46.1331 4.2643 46.3773 6.1488L46.9139 9.85255C46.9828 10.328 47.6695 10.3222 47.7304 9.84565L48.8384 1.17072C48.8835 0.817447 49.1836 0.552797 49.539 0.552797H57.0992C57.4893 0.552797 57.8055 0.869676 57.8055 1.26056Z" fill="white"/>
<path d="M61.2543 0.552795H71.2327C71.6228 0.552795 71.9391 0.869674 71.9391 1.26056V5.11287C71.9391 5.50376 71.6228 5.82064 71.2327 5.82064H67.7914C67.5639 5.82064 67.3794 6.00549 67.3794 6.23351V10.3992C67.3794 10.6272 67.5639 10.8121 67.7914 10.8121H70.9406C71.3308 10.8121 71.647 11.129 71.647 11.5199V15.112C71.647 15.5029 71.3308 15.8198 70.9406 15.8198H67.7914C67.5639 15.8198 67.3794 16.0046 67.3794 16.2327V21.1951C67.3794 21.4231 67.5639 21.6079 67.7914 21.6079H71.6871C72.0772 21.6079 72.3934 21.9248 72.3934 22.3157V26.168C72.3934 26.5589 72.0772 26.8758 71.6871 26.8758H61.2543C60.8641 26.8758 60.5479 26.5589 60.5479 26.168V1.26056C60.5479 0.869674 60.8641 0.552795 61.2543 0.552795Z" fill="white"/>
</g>
<defs>
<clipPath id="clip0_92_346">
<rect width="72.3934" height="27.4286" fill="white"/>
</clipPath>
</defs>
</svg>
