<svg width="151" height="114" viewBox="0 0 151 114" fill="none" xmlns="http://www.w3.org/2000/svg">
<path d="M18.1272 31.6091C18.1272 19.0691 11.8086 8.70545 0 0H27.4498C37.0831 7.46182 42.9874 18.8618 42.9874 31.6091C42.9874 44.3564 37.0831 55.7564 27.4498 63.2182C36.358 66.9491 41.4336 76.0691 41.4336 89.1273V114H16.5735V89.1273C16.5735 76.6909 10.6692 67.9855 0 63.2182C11.8086 54.5127 18.1272 44.1491 18.1272 31.6091ZM71.991 31.6091C71.991 19.0691 65.6723 8.70545 53.8637 0H81.3135C90.9468 7.46182 96.8511 18.8618 96.8511 31.6091C96.8511 44.3564 90.9468 55.7564 81.3135 63.2182C90.2218 66.9491 95.2974 76.0691 95.2974 89.1273V114H70.4372V89.1273C70.4372 76.6909 64.5329 67.9855 53.8637 63.2182C65.6723 54.5127 71.991 44.1491 71.991 31.6091ZM125.855 31.6091C125.855 19.0691 119.536 8.70545 107.727 0H135.177C144.811 7.46182 150.715 18.8618 150.715 31.6091C150.715 44.3564 144.811 55.7564 135.177 63.2182C144.085 66.9491 149.161 76.0691 149.161 89.1273V114H124.301V89.1273C124.301 76.6909 118.397 67.9855 107.727 63.2182C119.536 54.5127 125.855 44.1491 125.855 31.6091Z" fill="currentColor"/>
</svg>
