<svg width="800" height="114" viewBox="0 0 800 114" fill="none" xmlns="http://www.w3.org/2000/svg">
<path d="M18.1272 31.6091C18.1272 19.0691 11.8086 8.70545 0 0H27.4498C37.0831 7.46182 42.9874 18.8618 42.9874 31.6091C42.9874 44.3564 37.0831 55.7564 27.4498 63.2182C36.358 66.9491 41.4336 76.0691 41.4336 89.1273V114H16.5735V89.1273C16.5735 76.6909 10.6692 67.9855 0 63.2182C11.8086 54.5127 18.1272 44.1491 18.1272 31.6091ZM71.991 31.6091C71.991 19.0691 65.6723 8.70545 53.8637 0H81.3135C90.9468 7.46182 96.8511 18.8618 96.8511 31.6091C96.8511 44.3564 90.9468 55.7564 81.3135 63.2182C90.2218 66.9491 95.2974 76.0691 95.2974 89.1273V114H70.4372V89.1273C70.4372 76.6909 64.5329 67.9855 53.8637 63.2182C65.6723 54.5127 71.991 44.1491 71.991 31.6091ZM125.855 31.6091C125.855 19.0691 119.536 8.70545 107.727 0H135.177C144.811 7.46182 150.715 18.8618 150.715 31.6091C150.715 44.3564 144.811 55.7564 135.177 63.2182C144.085 66.9491 149.161 76.0691 149.161 89.1273V114H124.301V89.1273C124.301 76.6909 118.397 67.9855 107.727 63.2182C119.536 54.5127 125.855 44.1491 125.855 31.6091Z" fill="currentColor"/>
<g clip-path="url(#clip0_1_258)">
<path d="M226.559 93.2829H207.706V20.7271H254.008C276.279 20.7271 287.259 29.018 287.259 42.5943C287.259 51.818 281.872 58.7616 271.825 62.2852C282.183 63.8398 286.844 69.3325 286.844 79.178V93.2725H267.785V80.0071C267.785 71.7161 263.642 68.3998 252.765 68.3998H226.559V93.2725V93.2829ZM252.972 31.298H226.559V57.8289H252.765C262.295 57.8289 268.199 52.5434 268.199 44.2525C268.199 35.9616 262.709 31.298 252.972 31.298" fill="currentColor"/>
<path d="M319.991 20.7272H301.139V93.283H319.991V20.7272Z" fill="currentColor"/>
<path d="M377.791 69.6436H354.796V93.2727H335.943V20.7272H378.206C400.476 20.7272 412.181 30.0545 412.181 44.9781C412.181 59.9018 400.269 69.6436 377.791 69.6436V69.6436ZM377.377 31.2981H354.796V59.0727H377.17C386.907 59.0727 392.915 54.0981 392.915 45.0818C392.915 36.0654 386.907 31.2981 377.377 31.2981" fill="currentColor"/>
<path d="M465.216 69.6436H442.221V93.2727H423.368V20.7272H465.631C487.901 20.7272 499.606 30.0545 499.606 44.9781C499.606 59.9018 487.694 69.6436 465.216 69.6436V69.6436ZM464.802 31.2981H442.221V59.0727H464.595C474.332 59.0727 480.34 54.0981 480.34 45.0818C480.34 36.0654 474.332 31.2981 464.802 31.2981" fill="currentColor"/>
<path d="M529.646 20.7272V82.4945H576.673V93.283H510.793V20.7272H529.646Z" fill="currentColor"/>
<path d="M607.323 20.7272H588.471V93.283H607.323V20.7272Z" fill="currentColor"/>
<path d="M635.705 44.9781V93.283H623.275V20.7272H637.373L688.751 69.0218V20.7272H701.181V93.283H687.093L635.705 44.9781Z" fill="currentColor"/>
<path d="M762.71 29.2255C744.79 29.2255 733.085 40.6255 733.085 57.6218C733.085 74.6182 744.272 84.7745 761.674 84.7745H762.917C768.821 84.7745 775.451 83.5309 781.562 81.5618V61.9745H751.108V51.6109H800V85.7073C789.849 90.9927 774.518 95.1382 762.088 95.1382H760.431C731.842 95.1382 713.404 80.0073 713.404 58.0364C713.404 36.0655 732.36 18.8618 761.467 18.8618H763.124C775.243 18.8618 789.124 22.6964 799.379 28.7073L793.992 37.5164C784.773 32.4382 773.793 29.2255 763.953 29.2255H762.71V29.2255Z" fill="currentColor"/>
</g>
<defs>
<clipPath id="clip0_1_258">
<rect width="592.294" height="76.2764" fill="white" transform="translate(207.706 18.8618)"/>
</clipPath>
</defs>
</svg>

